# xmcd CD database file
#
# Track frame offsets:
#	150
#	14521
#	32330
#	46358
#	62095
#	77615
#	92294
#	109295
#	126717
#	138941
#	154737
#	166522
#	181880
#	197065
#	212420
#
# Disc length: 3015 seconds
#
# Revision: 0
# Processed by: cddbd v1.5.2PL0 Copyright (c) Steve Scherf et al.
# Submitted via: CDex 1.51
#
DISCID=bc0bc50f
DTITLE=La Arrolladora Banda El Limón - Antología Musical
DYEAR=2012
DGENRE=Banda
TTITLE0=Irreversible
TTITLE1=Siempre estás tú
TTITLE2=Llamada de mi ex
TTITLE3=Primer tiempo
TTITLE4=Disponible para mi
TTITLE5=El final de nuestra historia
TTITLE6=Compárame
TTITLE7=Huele a peligro
TTITLE8=Metiendo las patas
TTITLE9=Te quiero a ti
TTITLE10=El amor de mis sueños
TTITLE11=Perdona mi franqueza
TTITLE12=Aunque me duela
TTITLE13=Regálame una noche
TTITLE14=Ya es muy tarde
EXTD=YEAR: 2012
EXTT0=
EXTT1=
EXTT2=
EXTT3=
EXTT4=
EXTT5=
EXTT6=
EXTT7=
EXTT8=
EXTT9=
EXTT10=
EXTT11=
EXTT12=
EXTT13=
EXTT14=
PLAYORDER=
